<svg width="22" height="21" viewBox="0 0 22 21" fill="none" xmlns="http://www.w3.org/2000/svg">
<path d="M20.3296 6.7002L14.6221 5.86811L12.0712 0.695858C11.6141 -0.226084 10.2898 -0.237803 9.82882 0.695858L7.27786 5.86811L1.57041 6.7002C0.546897 6.84865 0.136711 8.11046 0.878953 8.83317L5.00816 12.8569L4.03153 18.5409C3.85573 19.5683 4.93784 20.3379 5.84416 19.8574L10.95 17.1736L16.0558 19.8574C16.9622 20.334 18.0443 19.5683 17.8685 18.5409L16.8918 12.8569L21.021 8.83317C21.7633 8.11046 21.3531 6.84865 20.3296 6.7002ZM14.88 12.2006L15.8058 17.6072L10.95 15.0563V2.66085L13.3799 7.58308L18.8099 8.3722L14.88 12.2006Z" fill="#9DACBF"/>
</svg>
