<svg width="16" height="21" viewBox="0 0 16 21" fill="none" xmlns="http://www.w3.org/2000/svg">
<path d="M3.59 4.41012C2.81 3.63012 2.81 2.36012 3.59 1.58012C4.37 0.800117 5.64 0.800117 6.42 1.58012C7.2 2.36012 7.2 3.63012 6.42 4.41012C5.63 5.20012 4.37 5.20012 3.59 4.41012ZM2 15.0001V7.00012C2 6.45012 1.55 6.00012 1 6.00012C0.45 6.00012 0 6.45012 0 7.00012V15.0001C0 17.7601 2.24 20.0001 5 20.0001H10C10.55 20.0001 11 19.5501 11 19.0001C11 18.4501 10.55 18.0001 10 18.0001H5C3.34 18.0001 2 16.6601 2 15.0001ZM15.28 18.3501L11.51 14.5801C11.14 14.2101 10.63 14.0001 10.1 14.0001H7.5V10.3201C8.59 11.2101 10.16 12.0201 11.7 12.3401C12.37 12.4801 13 11.9801 13 11.3001C13 10.7701 12.61 10.3401 12.08 10.2501C10.66 10.0101 9.2 9.24012 8.33 8.28012L6.93 6.73012C6.74 6.52012 6.5 6.35012 6.24 6.23012C5.95 6.09012 5.62 6.00012 5.28 6.00012H5.25C4.01 6.00012 3 7.01012 3 8.25012V14.0001C3 15.6601 4.34 17.0001 6 17.0001H11.07L13.85 19.7801C14.24 20.1701 14.89 20.1701 15.28 19.7801C15.68 19.3901 15.68 18.7501 15.28 18.3501Z" fill="#9DACBF"/>
</svg>
