<svg width="164" height="40" viewBox="0 0 164 40" fill="none" xmlns="http://www.w3.org/2000/svg"><path fill-rule="evenodd" clip-rule="evenodd" d="M57.805 12.098c-2.187 0-4.07.646-5.65 1.938-1.58 1.293-2.659 3.071-3.235 5.337-.2.855-.309 1.352-.328 1.49a10 10 0 00-.15 1.82c0 1.769.517 3.13 1.551 4.084 1.034.954 2.505 1.431 4.413 1.431 1.372 0 2.629-.234 3.772-.7 1.143-.468 2.067-1.02 2.773-1.655.705-.636 1.128-1.193 1.267-1.67.04-.179.01-.328-.09-.447a.514.514 0 00-.416-.18h-2.624c-.239 0-.418.026-.537.075-.12.05-.289.184-.507.403-.915.914-1.938 1.371-3.071 1.371-.816 0-1.437-.263-1.864-.79-.428-.526-.64-1.207-.64-2.042 0-.318.029-.656.088-1.014l.06-.238h9.87a.89.89 0 00.581-.209.865.865 0 00.313-.507l.15-.626c.158-.835.238-1.58.238-2.236 0-1.749-.502-3.125-1.506-4.13-1.004-1.003-2.49-1.505-4.457-1.505zm1.879 6.62v.059h-6.53v-.06c.238-1.172.725-2.111 1.46-2.817a3.661 3.661 0 012.625-1.059c.835 0 1.47.244 1.908.73.437.488.656 1.149.656 1.983 0 .398-.04.786-.12 1.163zm13.722-13.18a.78.78 0 00-.552.21.701.701 0 00-.224.536v1.52c0 .22.07.393.209.522.139.13.318.194.537.194 1.968.08 3.384.482 4.249 1.207.864.726 1.297 1.834 1.297 3.324 0 .557-.06 1.183-.18 1.879-1.073-1.233-2.474-1.849-4.203-1.849-2.227 0-4.04.582-5.442 1.744-1.401 1.163-2.36 2.768-2.878 4.815a16.805 16.805 0 00-.387 1.819c-.08.417-.12.864-.12 1.341 0 1.67.557 2.987 1.67 3.95 1.113.965 2.674 1.447 4.682 1.447 2.365 0 4.264-.591 5.695-1.774s2.425-2.837 2.982-4.964c.397-1.332.665-2.475.805-3.428.337-1.73.507-3.24.507-4.532 0-2.604-.697-4.572-2.088-5.903-1.391-1.332-3.578-2.018-6.56-2.058zm3.667 14.251c-.06.338-.19.846-.387 1.52-.319 1.273-.85 2.237-1.596 2.893-.745.656-1.655.984-2.728.984-.875 0-1.516-.214-1.923-.641-.408-.428-.612-1.078-.612-1.953 0-.437.04-.865.12-1.282.079-.418.198-.924.357-1.52.378-1.233.915-2.157 1.61-2.773.696-.616 1.6-.925 2.714-.925.815 0 1.441.239 1.878.716.438.477.656 1.133.656 1.968 0 .318-.03.656-.09 1.013h.001zM93.055 12.1c-2.187 0-4.07.646-5.65 1.937-1.58 1.293-2.659 3.071-3.236 5.337-.198.855-.308 1.352-.327 1.49a10 10 0 00-.15 1.82c0 1.769.517 3.13 1.551 4.084 1.033.954 2.505 1.431 4.413 1.431 1.372 0 2.628-.234 3.772-.7 1.143-.468 2.067-1.02 2.773-1.655.705-.636 1.128-1.193 1.267-1.67.04-.179.01-.328-.09-.447a.513.513 0 00-.417-.18h-2.623c-.239 0-.418.026-.537.075-.12.05-.289.184-.507.403-.915.914-1.938 1.371-3.071 1.371-.816 0-1.437-.263-1.864-.79-.428-.526-.641-1.207-.641-2.042 0-.318.03-.656.09-1.014l.06-.238h9.869a.89.89 0 00.581-.209.865.865 0 00.313-.507l.15-.626c.158-.835.238-1.58.238-2.236 0-1.749-.502-3.125-1.506-4.13-1.004-1.003-2.49-1.505-4.458-1.505zm1.879 6.618v.06h-6.53v-.06c.238-1.172.725-2.111 1.46-2.817a3.661 3.661 0 012.625-1.059c.834 0 1.47.244 1.908.73.437.488.656 1.149.656 1.983 0 .398-.04.786-.12 1.163zm25.01-6.156a.5.5 0 00-.387-.164h-2.684c-.358 0-.656.169-.894.506l-6.173 8.408-2.922-8.408c-.119-.337-.348-.506-.686-.506h-2.415a.733.733 0 00-.462.178c-.149.12-.234.25-.253.388l-3.042 14.31c-.04.18-.01.329.09.448a.51.51 0 00.417.179h2.624c.198 0 .368-.06.507-.179a.805.805 0 00.268-.447l1.849-8.765 2.087 6.29c.079.22.174.393.284.522.109.13.273.194.492.194h.745a.909.909 0 00.552-.164c.149-.11.322-.293.522-.552l4.442-6.052-1.819 8.527c-.04.179-.01.328.09.447a.51.51 0 00.417.179h2.654a.77.77 0 00.492-.18.647.647 0 00.253-.446l3.042-14.311a.417.417 0 00-.09-.403zm17.61-.462c-2.147 0-3.956.765-5.427 2.295l.299-1.312c.039-.218.004-.387-.105-.507-.109-.119-.263-.178-.462-.178h-1.252a.815.815 0 00-.552.193.72.72 0 00-.253.492l-3.662 17.221c-.04.219-.01.388.09.507.099.12.248.18.447.18h1.342a.835.835 0 00.537-.194.833.833 0 00.298-.492l.918-4.372c.755 1.51 2.207 2.266 4.354 2.266 2.087 0 3.786-.66 5.098-1.983 1.312-1.321 2.226-3.006 2.744-5.053a22.93 22.93 0 00.447-2.028 10.68 10.68 0 00.179-1.908c0-1.55-.408-2.792-1.223-3.726-.815-.934-2.087-1.402-3.816-1.402h-.001zm2.087 7.185a22.392 22.392 0 01-.357 1.729c-.378 1.451-.989 2.624-1.834 3.518-.845.895-1.983 1.342-3.414 1.342-1.153 0-2.008-.328-2.564-.984-.557-.656-.835-1.47-.835-2.445 0-.337.03-.686.089-1.043.06-.378.219-1.153.477-2.326a6.982 6.982 0 011.834-3.28c.904-.913 2.052-1.37 3.444-1.37 2.186 0 3.28 1.142 3.28 3.428 0 .497-.04.974-.12 1.43zm21.94-5.352c-1.073-1.023-2.654-1.535-4.741-1.535h-2.683c-2.466 0-4.463.606-5.994 1.818-1.531 1.213-2.564 2.843-3.101 4.89-.219.994-.368 1.68-.447 2.057-.06.418-.09.815-.09 1.193 0 1.65.532 2.986 1.595 4.01 1.064 1.024 2.649 1.535 4.756 1.535l-.5 2.404c-.041.198-.011.362.089.492.099.129.248.193.447.193h1.312a.834.834 0 00.537-.193.828.828 0 00.298-.492l.501-2.404c2.505 0 4.512-.606 6.023-1.819 1.511-1.212 2.535-2.852 3.071-4.919.199-.874.348-1.56.448-2.057.059-.398.089-.785.089-1.163 0-1.65-.537-2.986-1.61-4.01zm-10.227 11.732c-2.784 0-4.175-1.173-4.175-3.518 0-.358.03-.745.09-1.163a32.57 32.57 0 01.387-1.67c.815-3.12 2.833-4.68 6.053-4.68l-2.355 11.03v.001zm9.094-6.35c-.159.795-.288 1.352-.388 1.67-.815 3.12-2.832 4.68-6.053 4.68l2.356-11.031c2.783 0 4.174 1.173 4.174 3.518 0 .358-.029.745-.089 1.163zm-37.762 4.17c-1.212 0-2.387.982-2.624 2.194-.238 1.211.553 2.193 1.765 2.193 1.212 0 2.387-.982 2.624-2.193.237-1.212-.553-2.194-1.765-2.194z" fill="#43B02A"/><path d="M40.666 14.752c.28.783.508 1.738-.08 2.283-.364.334-.979.4-1.63.376-.603-.02-1.24-.122-1.721-.167-.318-.02-.6.025-.734.036-.413.036-1.137.363-1.48.516a5.2 5.2 0 00-1.102.675c-.599.475-1.11 1.063-1.601 1.627-.714.811-1.424 1.603-2.211 2.353-1.812 1.724-4.394 2.465-7.142 2.372a12.39 12.39 0 01-1.396-.123c-1.125-.137-3.187-.63-4.534-.675a3.359 3.359 0 00-.787.042c-.708.13-1.387.325-2.058.517-.136.04-.28.08-.411.137 4.517 4.992 12.991 7.662 18.876 3.303a9.736 9.736 0 003.302-4.477c.101-.286.169-.563.251-.853.14-.665.666-1.074 1.345-1.048.176.005.37.04.565.113l1.908.657c.968.328 1.534 1.241 1.357 2.1l-.04.15c-2.535 12.573-19.438 13.07-28.857 6.604-7.954-5.429-11.033-15.21-7.64-22.49C7.489 3.11 13.757-.134 19.88.004c7.708.269 15.862 5.226 19.643 12.209a19.4 19.4 0 011.143 2.539zm-13.21 4.399c.757-2.166-.59-4.84-3.056-5.997a5.224 5.224 0 00-2.079-.515c-1.71-.061-3.2.799-3.76 2.338-.778 2.153.59 4.838 3.037 5.993a5.23 5.23 0 002.079.515c1.72.067 3.219-.795 3.779-2.334zm6.92-8.17a12.087 12.087 0 00-.348-.51C28.94 3.404 15.303.779 10.462 8.608c-2.027 3.28-1.747 7.416-1.204 9.587.08.32.17.62.3.925.138.32.2.43-.085.634-.604.433-1.21.886-1.758 1.342-.422.35-.8.763-.863 1.275-.095.755.54 1.361 1.522 1.41 2.926.042 8.142-.763 11.54-1.119.888-.093.363-.132-.18-.472-2.542-1.595-4.087-4.387-3.851-6.987.277-3.152 3.057-5.021 6.198-4.913 2.876.1 5.909 1.946 7.173 4.611.484 1.022.743 2.249.514 3.372-.089.438-.18.441.258.17l.15-.093c1.58-.972 5.736-3.482 7.192-4.564.58-.43.825-1.13.542-1.617-.315-.545-.852-.616-1.418-.64-.115-.003-.794.02-1.282.02-.683 0-.463.01-.834-.568z" fill="#0762C8"/><path fill-rule="evenodd" clip-rule="evenodd" d="M17.395 21.25c-.927-.998-1.621-2.114-1.998-3.402-.293-1.003-.147-1.252-.953-.686a287.605 287.605 0 00-3.518 2.506c-.912.66-1.846 1.307-2.712 2.027-.21.175-.552.482-.588.773-.048.384.486.516.775.534 2.018.027 4.233-.257 6.24-.495.807-.097 1.393-.172 2.202-.273 1.525-.19 1.462-.006.552-.985z" fill="#43B02A"/><path d="M.018 18.623a17.13 17.13 0 01.606-3.844c.163-.582.418-.482.408.017C.89 22.08 5.086 29.159 11.107 33.28c5.742 3.932 13.894 5.528 20.675 3.85l.057-.014c.434-.107.495.27.157.48a16.76 16.76 0 01-.628.37c-2.859 1.6-7.034 2.244-11.133 1.973C8.95 39.19-.457 30.152.018 18.623z" fill="#43B02A"/><path fill-rule="evenodd" clip-rule="evenodd" d="M30.378 16.03c.05.213.081.372.108.587.097.775.139.634.923.157.744-.453 1.273-.771 2.01-1.23 1.17-.73 2.432-1.492 3.537-2.313.159-.118.486-.493.356-.717-.166-.287-.555-.283-.837-.295a41.64 41.64 0 00-2.498.04c-1.556.056-3.111.133-4.665.219-.89.049-.839.12-.357.687.655.772 1.195 1.886 1.423 2.865z" fill="#43B02A"/><path d="M26.499 18.443c.316-1.69-.84-3.603-2.65-4.342-.823-.335-2.143-.422-3.228.141-.503.26-.131.309.347.274 2.72-.198 5.094 2.254 4.366 5.228-.055.222-.22.8.199.405.451-.423.866-1.174.966-1.706z" fill="#43B02A"/></svg>