<?xml version="1.0" encoding="UTF-8"?><!DOCTYPE svg PUBLIC "-//W3C//DTD SVG 1.1//EN" "http://www.w3.org/Graphics/SVG/1.1/DTD/svg11.dtd"><svg xmlns="http://www.w3.org/2000/svg" xmlns:xlink="http://www.w3.org/1999/xlink"><symbol id="icon-arrow" viewBox="0 0 12 7"><path d="M1.007 0h9.986c.28 0 .518.098.713.293a.97.97 0 01.294.713.97.97 0 01-.294.713L6.713 6.707A.972.972 0 016 7a.972.972 0 01-.713-.293L.294 1.719A.97.97 0 010 1.006.97.97 0 01.294.293.972.972 0 011.007 0z"/></symbol><symbol id="icon-auto" viewBox="0 0 18 16"><path d="M15.92 1.01C15.72.42 15.16 0 14.5 0h-11c-.66 0-1.21.42-1.42 1.01L.11 6.68c-.07.21-.11.43-.11.66v7.16c0 .83.67 1.5 1.5 1.5S3 15.33 3 14.5V14h12v.5c0 .82.67 1.5 1.5 1.5.82 0 1.5-.67 1.5-1.5V7.34c0-.22-.04-.45-.11-.66l-1.97-5.67zM3.5 11C2.67 11 2 10.33 2 9.5S2.67 8 3.5 8 5 8.67 5 9.5 4.33 11 3.5 11zm11 0c-.83 0-1.5-.67-1.5-1.5S13.67 8 14.5 8s1.5.67 1.5 1.5-.67 1.5-1.5 1.5zM2 6l1.27-3.82c.14-.4.52-.68.95-.68h9.56c.43 0 .81.28.95.68L16 6H2z"/></symbol><symbol id="icon-bell" viewBox="0 0 16 20"><path d="M8 20c1.1 0 2-.9 2-2H6a2 2 0 002 2zm6-6V9c0-3.07-1.64-5.64-4.5-6.32V2C9.5 1.17 8.83.5 8 .5S6.5 1.17 6.5 2v.68C3.63 3.36 2 5.92 2 9v5L.71 15.29c-.63.63-.19 1.71.7 1.71h13.17c.89 0 1.34-1.08.71-1.71L14 14z"/></symbol><symbol id="icon-message" viewBox="0 0 20 18"><path d="M10 0C8.177 0 6.497.365 4.96 1.094c-1.51.729-2.72 1.718-3.632 2.968C.443 5.287 0 6.642 0 8.125c0 .964.195 1.875.586 2.734.39.86.937 1.654 1.64 2.383-.208.807-.624 1.667-1.25 2.578-.364.521-.663.899-.898 1.133a.34.34 0 00-.039.352c.052.13.143.195.274.195a8.452 8.452 0 003.359-.703 10.689 10.689 0 002.148-1.29 11.85 11.85 0 004.18.743c1.823 0 3.49-.365 5-1.094 1.537-.729 2.747-1.706 3.633-2.93C19.544 10.977 20 9.61 20 8.126s-.456-2.839-1.367-4.063c-.886-1.25-2.096-2.24-3.633-2.968C13.49.364 11.823 0 10 0z"/></symbol><symbol id="icon-people" viewBox="0 0 16 21"><path d="M3.59 4.41c-.78-.78-.78-2.05 0-2.83.78-.78 2.05-.78 2.83 0 .78.78.78 2.05 0 2.83-.79.79-2.05.79-2.83 0zM2 15V7c0-.55-.45-1-1-1s-1 .45-1 1v8c0 2.76 2.24 5 5 5h5c.55 0 1-.45 1-1s-.45-1-1-1H5c-1.66 0-3-1.34-3-3zm13.28 3.35l-3.77-3.77c-.37-.37-.88-.58-1.41-.58H7.5v-3.68c1.09.89 2.66 1.7 4.2 2.02.67.14 1.3-.36 1.3-1.04 0-.53-.39-.96-.92-1.05-1.42-.24-2.88-1.01-3.75-1.97l-1.4-1.55c-.19-.21-.43-.38-.69-.5-.29-.14-.62-.23-.96-.23h-.03C4.01 6 3 7.01 3 8.25V14c0 1.66 1.34 3 3 3h5.07l2.78 2.78c.39.39 1.04.39 1.43 0 .4-.39.4-1.03 0-1.43z"/></symbol><symbol id="icon-plus" viewBox="0 0 14 14"><path d="M13 8H8v5c0 .55-.45 1-1 1s-1-.45-1-1V8H1c-.55 0-1-.45-1-1s.45-1 1-1h5V1c0-.55.45-1 1-1s1 .45 1 1v5h5c.55 0 1 .45 1 1s-.45 1-1 1z"/></symbol><symbol id="icon-profile" viewBox="0 0 16 16"><path d="M8 8c2.21 0 4-1.79 4-4s-1.79-4-4-4-4 1.79-4 4 1.79 4 4 4zm0 2c-2.67 0-8 1.34-8 4v1c0 .55.45 1 1 1h14c.55 0 1-.45 1-1v-1c0-2.66-5.33-4-8-4z"/></symbol><symbol id="icon-search" viewBox="0 0 18 18"><path d="M12.5 11h-.79l-.28-.27a6.5 6.5 0 001.48-5.34c-.47-2.78-2.79-5-5.59-5.34A6.505 6.505 0 00.05 7.32c.34 2.8 2.56 5.12 5.34 5.59a6.5 6.5 0 005.34-1.48l.27.28v.79l4.25 4.25c.41.41 1.08.41 1.49 0 .41-.41.41-1.08 0-1.49L12.5 11zm-6 0C4.01 11 2 8.99 2 6.5S4.01 2 6.5 2 11 4.01 11 6.5 8.99 11 6.5 11z"/></symbol><symbol id="icon-star" viewBox="0 0 22 21"><path d="M20.33 6.7l-5.708-.832-2.55-5.172c-.458-.922-1.782-.934-2.243 0L7.278 5.868 1.57 6.7C.547 6.85.137 8.11.88 8.833l4.13 4.024-.977 5.684c-.176 1.027.906 1.797 1.812 1.316l5.106-2.683 5.106 2.683c.906.477 1.988-.289 1.813-1.316l-.977-5.684 4.129-4.024c.742-.723.332-1.984-.691-2.133zm-5.45 5.5l.926 5.407-4.856-2.55V2.66l2.43 4.922 5.43.79-3.93 3.828z"/></symbol></svg>